<svg xmlns="http://www.w3.org/2000/svg" xmlns:xlink="http://www.w3.org/1999/xlink" version="1.1" id="Layer_1" x="0px" y="0px" width="18px" height="18px" viewBox="0 0 18 18" xml:space="preserve"><path id="path2" fill="#FFFFFF" d="M1.991,0.069c4.684,0,9.361,0,14.039,0c0,5.855,0,11.709,0,17.556c-4.678,0-9.355,0-14.039,0 C1.991,11.778,1.991,5.924,1.991,0.069z M6.702,10.854c-0.225,0.084-0.406,0.137-0.572,0.221c-2.338,1.221-3.568,3.16-3.841,5.728 c-0.053,0.515,0.134,0.688,0.668,0.688c4.042-0.017,8.092-0.017,12.122,0c0.561,0,0.701-0.223,0.648-0.719 c-0.143-1.664-0.771-3.139-1.984-4.324c-0.266-0.258-0.723-0.443-1.092-0.462c-1.389-0.053-2.764-0.064-4.149-0.015 C7.615,12.004,6.948,11.812,6.702,10.854z M11.402,9.364c1.549-0.833,2.289-2.6,1.795-4.212c-0.494-1.611-2.041-2.792-3.977-2.906 C7.598,2.143,5.813,2.941,4.987,4.518C4.11,6.173,4.645,8.222,6.237,9.24c0.158,0.09,0.518,0.123,0.632,0.02 C8.241,8.093,10.068,8.11,11.402,9.364L11.402,9.364z M10.346,11.335c0.479,0,0.971,0,1.461,0c1.705-0.001,3.184-1.012,3.779-2.557 c0.385-0.985,0.318-1.996,0.141-2.999c-0.615-3.413-3.797-5.812-7.304-5.522c-3.507,0.292-6.248,3.239-6.24,6.72 c0,0.396-0.131,0.954,0.5,0.961c0.678,0.001,0.513-0.59,0.52-0.995c0.04-3.813,3.665-6.48,7.425-5.451 c2.445,0.669,4.168,2.881,4.188,5.402c0.031,2.365-1.197,3.547-3.605,3.442c-0.176-0.014-0.473-0.063-0.508-0.152 C10.346,9.124,9.469,9.191,8.6,9.226C7.852,9.258,7.385,9.69,7.404,10.321c0.019,0.586,0.502,0.997,1.213,1.013 C9.188,11.351,9.768,11.335,10.346,11.335L10.346,11.335z"/><path id="path4" fill="#808080" d="M6.702,10.938c0.246,0.967,0.913,1.16,1.801,1.127c1.386-0.054,2.761-0.038,4.148,0.014 c0.371,0.018,0.828,0.207,1.092,0.467c1.213,1.194,1.844,2.681,1.986,4.358c0.051,0.501-0.09,0.726-0.65,0.724 c-4.029-0.016-8.079-0.016-12.121,0c-0.535,0.002-0.722-0.175-0.668-0.693c0.271-2.588,1.502-4.54,3.842-5.771 C6.295,11.074,6.477,11.024,6.702,10.938z"/><path id="path6" fill="#808080" d="M11.402,9.437C10.068,8.172,8.24,8.154,6.868,9.333C6.752,9.435,6.393,9.402,6.236,9.312 C4.645,8.287,4.11,6.22,4.987,4.554c0.826-1.59,2.611-2.393,4.234-2.291c1.938,0.115,3.482,1.306,3.977,2.929 C13.691,6.817,12.951,8.597,11.402,9.437z"/><path id="path8" fill="#808080" d="M10.346,11.424c-0.578,0-1.158,0.016-1.729-0.001c-0.711-0.017-1.194-0.431-1.213-1.021 C7.385,9.765,7.852,9.33,8.6,9.296c0.867-0.035,1.746-0.102,2.101,0.966c0.035,0.09,0.332,0.142,0.508,0.155 c2.408,0.104,3.637-1.086,3.605-3.472c-0.02-2.541-1.74-4.771-4.188-5.445c-3.76-1.037-7.386,1.651-7.424,5.495 C3.195,7.404,3.36,8,2.682,7.999c-0.631-0.006-0.5-0.568-0.5-0.967c-0.008-3.508,2.732-6.479,6.24-6.772 c3.507-0.293,6.689,2.124,7.304,5.564c0.178,1.011,0.244,2.029-0.141,3.023c-0.598,1.558-2.074,2.577-3.779,2.578 C11.316,11.424,10.824,11.424,10.346,11.424z"/></svg>